<?xml version="1.0" encoding="utf-8"?>
<!-- Generator: Adobe Illustrator 25.1.0, SVG Export Plug-In . SVG Version: 6.00 Build 0)  -->
<svg version="1.1" id="Layer_1" xmlns="http://www.w3.org/2000/svg" xmlns:xlink="http://www.w3.org/1999/xlink" x="0px" y="0px"
	 viewBox="0 0 700 700" style="enable-background:new 0 0 700 700;" xml:space="preserve">
<g>
	<path d="M350,227.4c-67.8,0-122.6,54.9-122.6,122.6S282.2,472.6,350,472.6S472.6,417.8,472.6,350S417.8,227.4,350,227.4z"/>
	<path d="M332.6,184.8h35.3c4.5,0,8.4-3.9,8.4-8.4v-84c0-4.5-3.9-8.4-8.4-8.4h-35.3c-4.5,0-8.4,3.9-8.4,8.4V177
		C324.2,181.4,328.2,184.8,332.6,184.8L332.6,184.8z"/>
	<path d="M209.4,245.8c3.4,3.4,8.4,3.4,11.8,0l24.6-24.6c3.4-3.4,3.4-8.4,0-11.8l-59.9-59.9c-3.4-3.4-8.4-3.4-11.8,0l-24.6,24.6
		c-3.4,3.4-3.4,8.4,0,11.8L209.4,245.8z"/>
	<path d="M184.8,367.4v-35.3c0-4.5-3.9-8.4-8.4-8.4h-84c-4.5,0-8.4,3.9-8.4,8.4v35.3c0,4.5,3.9,8.4,8.4,8.4H177
		C181.4,375.8,184.8,371.8,184.8,367.4L184.8,367.4z"/>
	<path d="M221.2,454.2c-3.4-3.4-8.4-3.4-11.8,0l-59.9,59.9c-3.4,3.4-3.4,8.4,0,11.8l24.6,24.6c3.4,3.4,8.4,3.4,11.8,0l59.9-59.9
		c3.4-3.4,3.4-8.4,0-11.8L221.2,454.2z"/>
	<path d="M367.4,515.2h-35.3c-4.5,0-8.4,3.9-8.4,8.4v84c0,4.5,3.9,8.4,8.4,8.4h35.3c4.5,0,8.4-3.9,8.4-8.4l0-84.6
		C375.8,518.6,371.8,515.2,367.4,515.2L367.4,515.2z"/>
	<path d="M490.6,454.2c-3.4-3.4-8.4-3.4-11.8,0l-24.6,24.6c-3.4,3.4-3.4,8.4,0,11.8l59.9,59.9c3.4,3.4,8.4,3.4,11.8,0l24.6-24.6
		c3.4-3.4,3.4-8.4,0-11.8L490.6,454.2z"/>
	<path d="M607.6,324.2H523c-4.5,0-8.4,3.9-8.4,8.4v35.3c0,4.5,3.9,8.4,8.4,8.4l84.6,0c4.5,0,8.4-3.9,8.4-8.4v-35.3
		C616,328.2,612.1,324.2,607.6,324.2z"/>
	<path d="M478.8,245.8c3.4,3.4,8.4,3.4,11.8,0l59.9-59.9c3.4-3.4,3.4-8.4,0-11.8l-24.6-24.6c-3.4-3.4-8.4-3.4-11.8,0l-59.9,59.9
		c-3.4,3.4-3.4,8.4,0,11.8L478.8,245.8z"/>
</g>
</svg>
