<svg width="107" height="107" viewBox="0 0 107 107" fill="none" xmlns="http://www.w3.org/2000/svg">
<rect width="106.256" height="106.256" rx="53.1278" fill="#D9D9D9"/>
<path d="M65.705 59.6497H63.3349L62.4949 58.8295C65.435 55.3666 67.205 50.871 67.205 45.9804C67.205 35.0754 58.4747 26.236 47.7043 26.236C36.9339 26.236 28.2036 35.0754 28.2036 45.9804C28.2036 56.8855 36.9339 65.7249 47.7043 65.7249C52.5345 65.7249 56.9747 63.9327 60.3948 60.9559L61.2048 61.8064V64.2061L76.2054 79.3638L80.6755 74.8377L65.705 59.6497V59.6497ZM47.7043 59.6497C40.2341 59.6497 34.2038 53.5441 34.2038 45.9804C34.2038 38.4168 40.2341 32.3112 47.7043 32.3112C55.1746 32.3112 61.2048 38.4168 61.2048 45.9804C61.2048 53.5441 55.1746 59.6497 47.7043 59.6497ZM41.1941 55.0933L47.6143 50.4457L54.0346 55.0933L51.5445 47.6207L57.9947 43.0643H50.1344L47.6143 35.3488L45.0942 43.0643H37.2039L43.6242 47.5904L41.1941 55.0933Z" fill="black"/>
</svg>
