<svg width="107" height="107" viewBox="0 0 107 107" fill="none" xmlns="http://www.w3.org/2000/svg">
<rect width="106.256" height="106.256" rx="53.1278" fill="black"/>
<path fill-rule="evenodd" clip-rule="evenodd" d="M25.772 26.236H80.6265C83.9788 26.236 86.7215 28.9513 86.7215 32.27V68.474C86.7215 71.7927 83.9788 74.508 80.6265 74.508H59.2942V80.542H65.3892V86.576H41.0093V80.542H47.1043V74.508H25.772C22.4197 74.508 19.677 71.7927 19.677 68.474V32.27C19.677 28.9513 22.4197 26.236 25.772 26.236ZM25.772 68.474H80.6265V32.27H25.772V68.474ZM53.1992 53.2453H37.8747V65.5049H53.1992V53.2453ZM68.5236 34.856H56.2641V44.0506H68.5236V34.856ZM53.1992 34.856H37.8747V50.1804H53.1992V34.856ZM68.5236 47.1155H56.2641V65.5049H68.5236V47.1155Z" fill="#FFFEEF"/>
</svg>
